<?xml version="1.0"?>
<svg xmlns="http://www.w3.org/2000/svg" xmlns:xlink="http://www.w3.org/1999/xlink" xmlns:svgjs="http://svgjs.com/svgjs" version="1.1" width="68" height="68" x="0" y="0" viewBox="0 0 512 512" style="enable-background:new 0 0 512 512" xml:space="preserve" class=""><g><linearGradient xmlns="http://www.w3.org/2000/svg" id="lg1"><stop stop-opacity="1" stop-color="#feca57" offset="0"/><stop stop-opacity="1" stop-color="#d2a337" offset="1"/></linearGradient><linearGradient xmlns="http://www.w3.org/2000/svg" xmlns:xlink="http://www.w3.org/1999/xlink" id="SVGID_1_" gradientUnits="userSpaceOnUse" x1="256" x2="256" xlink:href="#lg1" y1="512" y2="0"/><linearGradient xmlns="http://www.w3.org/2000/svg" xmlns:xlink="http://www.w3.org/1999/xlink" id="SVGID_2_" gradientUnits="userSpaceOnUse" x1="266" x2="266" xlink:href="#lg1" y1="512" y2="246"/><linearGradient xmlns="http://www.w3.org/2000/svg" id="SVGID_3_" gradientTransform="matrix(-1 0 0 -1 492 512)" gradientUnits="userSpaceOnUse" x1="226" x2="226" y1="176.415" y2="355.585"><stop offset="0" stop-color="#fff"/><stop offset=".2013" stop-color="#f3f9f9"/><stop offset=".6958" stop-color="#dbecee"/><stop offset="1" stop-color="#d2e7ea"/></linearGradient><g xmlns="http://www.w3.org/2000/svg"><circle cx="256" cy="256" fill="url(#SVGID_1_)" r="256" data-original="url(#SVGID_1_)" style=""/><path d="m410.048 246h-288.096l18.312 238.395c34.759 17.649 74.084 27.605 115.736 27.605 50.248 0 97.107-14.489 136.65-39.499z" fill="url(#SVGID_2_)" data-original="url(#SVGID_2_)" style=""/><path d="m126.878 259.144 60.675 69.585c7.259 8.325 19.893 9.189 28.218 1.93s9.189-19.893 1.93-28.218l-31.775-36.441h204.122c11.046 0 20-8.954 20-20s-8.954-20-20-20h-204.122l31.775-36.441c7.259-8.325 6.395-20.959-1.93-28.218-3.79-3.305-8.473-4.926-13.136-4.926-5.579 0-11.128 2.321-15.083 6.856l-60.675 69.585c-6.567 7.532-6.567 18.756.001 26.288z" fill="url(#SVGID_3_)" data-original="url(#SVGID_3_)" style=""/></g></g></svg>
